<svg width="18" height="18" viewBox="0 0 18 18" fill="none" xmlns="http://www.w3.org/2000/svg">
<rect x="0.126343" y="0.237793" width="17.5132" height="17.5132" rx="6" fill="white"/>
<path d="M13.2612 5.55436C13.2612 6.07252 12.8412 6.49256 12.323 6.49256C11.8049 6.49256 11.3848 6.07252 11.3848 5.55436C11.3848 5.0362 11.8049 4.61616 12.323 4.61616C12.8412 4.61616 13.2612 5.0362 13.2612 5.55436Z" fill="black"/>
<path fill-rule="evenodd" clip-rule="evenodd" d="M8.88293 12.1218C10.6101 12.1218 12.0103 10.7216 12.0103 8.99444C12.0103 7.26726 10.6101 5.86709 8.88293 5.86709C7.15574 5.86709 5.75558 7.26726 5.75558 8.99444C5.75558 10.7216 7.15574 12.1218 8.88293 12.1218ZM8.88293 10.8709C9.91924 10.8709 10.7593 10.0308 10.7593 8.99444C10.7593 7.95813 9.91924 7.11803 8.88293 7.11803C7.84662 7.11803 7.00652 7.95813 7.00652 8.99444C7.00652 10.0308 7.84662 10.8709 8.88293 10.8709Z" fill="black"/>
<path fill-rule="evenodd" clip-rule="evenodd" d="M2.62823 8.74426C2.62823 6.64248 2.62823 5.59159 3.03727 4.78882C3.39706 4.08268 3.97117 3.50857 4.67731 3.14878C5.48008 2.73975 6.53097 2.73975 8.63274 2.73975H9.13312C11.2349 2.73975 12.2858 2.73975 13.0886 3.14878C13.7947 3.50857 14.3688 4.08268 14.7286 4.78882C15.1376 5.59159 15.1376 6.64248 15.1376 8.74426V9.24463C15.1376 11.3464 15.1376 12.3973 14.7286 13.2001C14.3688 13.9062 13.7947 14.4803 13.0886 14.8401C12.2858 15.2491 11.2349 15.2491 9.13312 15.2491H8.63274C6.53097 15.2491 5.48008 15.2491 4.67731 14.8401C3.97117 14.4803 3.39706 13.9062 3.03727 13.2001C2.62823 12.3973 2.62823 11.3464 2.62823 9.24463V8.74426ZM8.63274 3.99069H9.13312C10.2046 3.99069 10.9331 3.99166 11.4961 4.03766C12.0445 4.08247 12.325 4.16369 12.5206 4.26337C12.9914 4.50324 13.3741 4.88598 13.614 5.35674C13.7137 5.55238 13.7949 5.83285 13.8397 6.38128C13.8857 6.94431 13.8867 7.67273 13.8867 8.74426V9.24463C13.8867 10.3162 13.8857 11.0446 13.8397 11.6076C13.7949 12.156 13.7137 12.4365 13.614 12.6322C13.3741 13.1029 12.9914 13.4856 12.5206 13.7255C12.325 13.8252 12.0445 13.9064 11.4961 13.9512C10.9331 13.9972 10.2046 13.9982 9.13312 13.9982H8.63274C7.56121 13.9982 6.8328 13.9972 6.26977 13.9512C5.72134 13.9064 5.44087 13.8252 5.24522 13.7255C4.77447 13.4856 4.39173 13.1029 4.15186 12.6322C4.05218 12.4365 3.97096 12.156 3.92615 11.6076C3.88015 11.0446 3.87917 10.3162 3.87917 9.24463V8.74426C3.87917 7.67273 3.88015 6.94431 3.92615 6.38128C3.97096 5.83285 4.05218 5.55238 4.15186 5.35674C4.39173 4.88598 4.77447 4.50324 5.24522 4.26337C5.44087 4.16369 5.72134 4.08247 6.26977 4.03766C6.8328 3.99166 7.56121 3.99069 8.63274 3.99069Z" fill="black"/>
</svg>
