<svg width="10" height="12" viewBox="0 0 10 12" fill="none" xmlns="http://www.w3.org/2000/svg">
<path d="M3.43624 0.782697C3.34086 0.224768 2.95738 0.156082 2.58305 0.0433033C1.91406 -0.158251 0.629492 0.328799 0.180178 1.82015C-0.188059 3.04239 -0.0525705 4.54258 1.15928 7.09078C2.32881 9.54998 4.32908 11.2425 6.24985 11.7841C8.17061 12.3257 9.05901 10.8 9.22628 10.2448C9.30042 9.99874 9.1847 9.82994 9.08955 9.76489C8.53263 9.25629 7.50727 8.31232 7.267 8.12062C7.02674 7.92892 6.83951 8.03389 6.72658 8.08766C6.40767 8.24913 5.70689 8.79701 5.49157 8.90286C5.27625 9.00871 5.04941 8.85397 4.9629 8.76337C4.62539 8.49364 3.72394 7.71699 3.13652 6.66265C2.41004 5.35872 2.45292 4.99833 2.35137 4.63543C2.27013 4.34511 2.42868 4.22977 2.50501 4.18148C2.80296 3.99298 3.22692 3.69109 3.42279 3.53661C3.61867 3.38213 3.59952 3.05222 3.59006 2.84748C3.54941 1.96697 3.51254 1.22904 3.43624 0.782697Z" fill="white"/>
</svg>
