<svg width="18" height="18" viewBox="0 0 18 18" fill="none" xmlns="http://www.w3.org/2000/svg">
<path d="M15.8676 8.68809C15.8676 12.6531 12.6534 15.8674 8.68834 15.8674C7.176 15.8674 5.77287 15.3998 4.61567 14.6012L2.1617 15.2147L2.80475 12.8033C1.98821 11.638 1.50903 10.219 1.50903 8.68809C1.50903 4.72307 4.72332 1.50879 8.68834 1.50879C12.6534 1.50879 15.8676 4.72307 15.8676 8.68809Z" fill="white"/>
<path fill-rule="evenodd" clip-rule="evenodd" d="M8.68835 17.0642C13.3142 17.0642 17.0642 13.3142 17.0642 8.68835C17.0642 4.0625 13.3142 0.3125 8.68835 0.3125C4.0625 0.3125 0.3125 4.0625 0.3125 8.68835C0.3125 10.1906 0.707958 11.6004 1.40045 12.8194L0.3125 17.0642L4.6888 16.0494C5.87728 16.6965 7.23988 17.0642 8.68835 17.0642ZM8.68835 15.7756C12.6025 15.7756 15.7756 12.6025 15.7756 8.68835C15.7756 4.77417 12.6025 1.60109 8.68835 1.60109C4.77417 1.60109 1.60109 4.77417 1.60109 8.68835C1.60109 10.1996 2.07412 11.6004 2.8802 12.7508L2.24539 15.1313L4.6679 14.5257C5.81027 15.314 7.1954 15.7756 8.68835 15.7756Z" fill="black"/>
<path d="M6.59442 4.79946C6.39527 4.39947 6.08978 4.43488 5.78115 4.43488C5.2296 4.43488 4.36957 5.09555 4.36957 6.32511C4.36957 7.3328 4.81361 8.43587 6.30987 10.086C7.75389 11.6784 9.65123 12.5022 11.2264 12.4742C12.8015 12.4461 13.1256 11.0907 13.1256 10.6329C13.1256 10.43 12.9997 10.3288 12.913 10.3013C12.3762 10.0437 11.3862 9.56368 11.1609 9.4735C10.9357 9.38332 10.8181 9.5053 10.7449 9.57166C10.5407 9.76632 10.1357 10.34 9.9971 10.4691C9.85846 10.5981 9.65176 10.5328 9.56574 10.484C9.24921 10.357 8.39098 9.97526 7.70688 9.3121C6.86083 8.49196 6.81118 8.20979 6.65178 7.95861C6.52426 7.75767 6.61784 7.63439 6.66453 7.58051C6.84681 7.37018 7.09851 7.04545 7.21139 6.88408C7.32427 6.72271 7.23466 6.47771 7.18089 6.32511C6.94964 5.66883 6.75373 5.11946 6.59442 4.79946Z" fill="black"/>
</svg>
